<svg width="236" height="43" viewBox="0 0 236 43" fill="none" xmlns="http://www.w3.org/2000/svg">
<path d="M76.75 24.8125L70.6562 28.7812H70.4688C70.2604 28.7812 70.0521 28.7292 69.8438 28.625C69.6562 28.5208 69.5625 28.3438 69.5625 28.0938C69.5625 27.9271 69.6042 27.7812 69.6875 27.6562C69.7917 27.5104 69.9167 27.3854 70.0625 27.2812C70.2292 27.1562 70.5312 26.9688 70.9688 26.7188C71.4062 26.4688 71.8646 26.1979 72.3438 25.9062C72.8229 25.5938 73.2812 25.3125 73.7188 25.0625C74.1771 24.8125 74.4896 24.6354 74.6562 24.5312C74.7396 24.4479 74.8646 24.3542 75.0312 24.25C75.1979 24.125 75.3438 24.0104 75.4688 23.9062C75.6146 23.7812 75.7396 23.6771 75.8438 23.5938C75.9479 23.5104 76 23.4583 76 23.4375L73.5938 18.5625C73.4896 18.4167 73.4271 18.3021 73.4062 18.2188C73.4062 18.1146 73.4062 17.9792 73.4062 17.8125C73.4062 17.1875 73.7083 16.875 74.3125 16.875C74.3958 16.875 74.5833 16.9375 74.875 17.0625C75.1875 17.1667 75.5625 17.3229 76 17.5312C76.4375 17.7188 76.8958 17.9271 77.375 18.1562C77.8542 18.3854 78.2917 18.5938 78.6875 18.7812C79.0833 18.9688 79.4167 19.1354 79.6875 19.2812C79.9583 19.4062 80.0938 19.4688 80.0938 19.4688L82.875 16.5938C82.9375 16.3438 83.1146 16.0417 83.4062 15.6875C83.7188 15.3333 84.0417 14.9583 84.375 14.5625C84.7083 14.1667 85 13.7708 85.25 13.375C85.5 12.9583 85.625 12.5833 85.625 12.25V12.1562L83.4688 7.125C83.2604 6.64583 83.125 6.13542 83.0625 5.59375C83.0208 5.03125 83 4.47917 83 3.9375C83 3.47917 83.0729 3.02083 83.2188 2.5625C83.3646 2.08333 83.5729 1.65625 83.8438 1.28125C84.1354 0.90625 84.4792 0.604167 84.875 0.375C85.2708 0.125 85.7396 0 86.2812 0C86.8438 0 87.3021 0.166667 87.6562 0.5C88.0312 0.8125 88.3229 1.20833 88.5312 1.6875C88.7604 2.16667 88.9167 2.67708 89 3.21875C89.0833 3.73958 89.125 4.21875 89.125 4.65625C89.125 5.90625 88.9792 7.10417 88.6875 8.25C88.4167 9.375 88.0417 10.5312 87.5625 11.7188V12.1562C88.0417 13.0521 88.5312 13.9792 89.0312 14.9375C89.5312 15.8958 89.9792 16.8958 90.375 17.9375C90.7708 18.9583 91.0938 19.9896 91.3438 21.0312C91.5938 22.0521 91.7188 23.0833 91.7188 24.125C91.7188 24.9375 91.5833 25.6979 91.3125 26.4062C91.0625 27.0938 90.6979 27.6979 90.2188 28.2188C89.7396 28.7396 89.1562 29.1458 88.4688 29.4375C87.8021 29.7292 87.0521 29.875 86.2188 29.875C85.2812 29.875 84.3854 29.7396 83.5312 29.4688C82.6979 29.1771 81.8854 28.8021 81.0938 28.3438C80.3229 27.8646 79.5833 27.3229 78.875 26.7188C78.1875 26.1146 77.5417 25.4792 76.9375 24.8125H76.75ZM78.3125 23.75C78.3125 23.7708 78.3646 23.8438 78.4688 23.9688C78.5938 24.0938 78.7292 24.2396 78.875 24.4062C79.0417 24.5521 79.2083 24.7083 79.375 24.875C79.5417 25.0417 79.6875 25.1771 79.8125 25.2812C79.875 25.3438 79.9792 25.4375 80.125 25.5625C80.2917 25.6667 80.4479 25.7917 80.5938 25.9375C80.7604 26.0625 80.9062 26.1875 81.0312 26.3125C81.1771 26.4167 81.2708 26.4792 81.3125 26.5C81.4375 26.5625 81.625 26.6667 81.875 26.8125C82.125 26.9583 82.375 27.1042 82.625 27.25C82.875 27.3958 83.1146 27.5312 83.3438 27.6562C83.5729 27.7812 83.7083 27.8542 83.75 27.875C84.2292 28.0833 84.6667 28.2188 85.0625 28.2812C85.4792 28.3229 85.8958 28.3438 86.3125 28.3438C86.9375 28.3438 87.4688 28.2292 87.9062 28C88.3646 27.75 88.7396 27.4271 89.0312 27.0312C89.3229 26.6146 89.5312 26.1458 89.6562 25.625C89.8021 25.0833 89.875 24.5417 89.875 24C89.875 23.4167 89.8229 22.8125 89.7188 22.1875C89.6354 21.5625 89.4896 20.9688 89.2812 20.4062L86.5625 13.875L84.0938 17.3438L78.3125 23.625V23.75ZM75.875 19.625C75.875 19.6667 75.8854 19.75 75.9062 19.875C75.9479 19.9792 75.9792 20.0521 76 20.0938C76.0833 20.2396 76.1875 20.4375 76.3125 20.6875C76.4583 20.9375 76.5938 21.1771 76.7188 21.4062C76.8646 21.6146 76.9792 21.8125 77.0625 22C77.1667 22.1667 77.2292 22.25 77.25 22.25H77.375C77.4375 22.25 77.5625 22.1667 77.75 22C77.9375 21.8125 78.1354 21.625 78.3438 21.4375C78.5521 21.2292 78.7396 21.0417 78.9062 20.875C79.0729 20.6875 79.1667 20.5833 79.1875 20.5625L79.0312 20.4062L76.3125 19.625H75.875ZM84.6562 3.90625C84.6562 5.07292 84.8333 6.13542 85.1875 7.09375C85.5417 8.03125 85.9896 9.01042 86.5312 10.0312C86.6354 9.96875 86.7292 9.84375 86.8125 9.65625C86.8958 9.44792 86.9688 9.22917 87.0312 9C87.0938 8.75 87.1458 8.52083 87.1875 8.3125C87.2292 8.10417 87.2604 7.97917 87.2812 7.9375C87.2812 7.89583 87.2917 7.79167 87.3125 7.625C87.3542 7.45833 87.3854 7.27083 87.4062 7.0625C87.4271 6.83333 87.4479 6.61458 87.4688 6.40625C87.5104 6.19792 87.5417 6.04167 87.5625 5.9375V5.84375C87.5625 5.76042 87.5521 5.5 87.5312 5.0625C87.5312 4.625 87.5 4.15625 87.4375 3.65625C87.375 3.13542 87.2604 2.67708 87.0938 2.28125C86.9271 1.86458 86.6771 1.65625 86.3438 1.65625C86.0104 1.65625 85.7292 1.71875 85.5 1.84375C85.2708 1.96875 85.0938 2.13542 84.9688 2.34375C84.8646 2.55208 84.7812 2.79167 84.7188 3.0625C84.6771 3.33333 84.6562 3.61458 84.6562 3.90625ZM93.1562 29.0625C93.1562 29 93.1562 28.8438 93.1562 28.5938C93.1562 28.3438 93.1562 28.1771 93.1562 28.0938C92.8021 26.8438 92.75 25.6146 93 24.4062C93.2708 23.1979 93.7396 22.1146 94.4062 21.1562C95.0938 20.1771 95.9583 19.3646 97 18.7188C98.0625 18.0521 99.2188 17.6458 100.469 17.5H101.031C101.49 17.5 101.865 17.6042 102.156 17.8125C102.469 18 102.708 18.25 102.875 18.5625C103.062 18.875 103.188 19.2292 103.25 19.625C103.333 20.0208 103.375 20.4167 103.375 20.8125C103.375 21.3542 103.312 21.8854 103.188 22.4062C103.083 22.9062 102.958 23.4167 102.812 23.9375C102.688 24.4583 102.562 24.9792 102.438 25.5C102.333 26 102.281 26.5312 102.281 27.0938V27.2812C102.302 27.3229 102.323 27.4479 102.344 27.6562C102.385 27.8438 102.417 27.9583 102.438 28C102.479 28 102.583 28.0104 102.75 28.0312C102.917 28.0312 103.021 28.0312 103.062 28.0312C103.271 28.0312 103.469 28.0312 103.656 28.0312C103.865 28.0104 104.073 27.9583 104.281 27.875L110.219 25.125C110.24 25.125 110.271 25.125 110.312 25.125C110.375 25.1042 110.417 25.0938 110.438 25.0938C110.646 25.0938 110.812 25.1562 110.938 25.2812C111.083 25.4062 111.156 25.5729 111.156 25.7812C111.156 25.8854 111.146 25.9896 111.125 26.0938C111.125 26.1771 111.073 26.2604 110.969 26.3438C110.823 26.4479 110.552 26.5938 110.156 26.7812C109.781 26.9688 109.375 27.1771 108.938 27.4062C108.5 27.6354 108.083 27.8542 107.688 28.0625C107.312 28.2708 107.042 28.4062 106.875 28.4688C106.583 28.6354 106.26 28.7917 105.906 28.9375C105.552 29.0625 105.188 29.1875 104.812 29.3125C104.438 29.4375 104.062 29.5417 103.688 29.625C103.333 29.6875 103.01 29.7188 102.719 29.7188C102.26 29.7188 101.885 29.6458 101.594 29.5C101.302 29.3333 101.083 29.125 100.938 28.875C100.792 28.6042 100.688 28.2917 100.625 27.9375C100.583 27.5625 100.583 27.1771 100.625 26.7812C100.208 27.1146 99.7604 27.4688 99.2812 27.8438C98.8021 28.2188 98.3021 28.5625 97.7812 28.875C97.2604 29.1875 96.7292 29.4583 96.1875 29.6875C95.6458 29.9167 95.0938 30.0312 94.5312 30.0312C94.2188 30.0312 93.9375 29.9583 93.6875 29.8125C93.4375 29.6458 93.2604 29.3958 93.1562 29.0625ZM94.8438 28.4062C95.3229 28.4062 95.8542 28.2708 96.4375 28C97.0208 27.7083 97.5938 27.3542 98.1562 26.9375C98.7188 26.5208 99.2292 26.0833 99.6875 25.625C100.146 25.1458 100.5 24.7188 100.75 24.3438C100.771 23.7188 100.854 23.125 101 22.5625C101.167 21.9792 101.25 21.3854 101.25 20.7812C101.25 20.7396 101.24 20.6771 101.219 20.5938C101.219 20.5104 101.219 20.4479 101.219 20.4062C100.948 20.1771 100.719 20.0417 100.531 20C100.344 19.9583 100.094 19.9375 99.7812 19.9375C99.7396 19.9375 99.6458 19.9375 99.5 19.9375C99.375 19.9375 99.2917 19.9479 99.25 19.9688C99.125 20.0729 98.9167 20.2708 98.625 20.5625C98.3333 20.8333 98.0208 21.1354 97.6875 21.4688C97.375 21.8021 97.0729 22.1146 96.7812 22.4062C96.5104 22.6979 96.3229 22.8958 96.2188 23C96.1979 23 96.1562 23.0417 96.0938 23.125C96.0312 23.1875 95.9583 23.2708 95.875 23.375C95.8125 23.4792 95.75 23.5833 95.6875 23.6875C95.6458 23.7708 95.6146 23.8438 95.5938 23.9062L94.8438 27.5625V28.4062ZM110.094 29.25C110.156 28.7292 110.24 28.2396 110.344 27.7812C110.448 27.3021 110.562 26.8333 110.688 26.375C110.812 25.9167 110.948 25.4479 111.094 24.9688C111.26 24.4688 111.438 23.9062 111.625 23.2812V23.125C110.792 23.6042 110.198 23.8438 109.844 23.8438C109.51 23.8438 109.344 23.7188 109.344 23.4688C109.323 23.2188 109.427 22.8854 109.656 22.4688C109.906 22.0521 110.198 21.6667 110.531 21.3125C110.885 20.9583 111.24 20.6771 111.594 20.4688C111.969 20.2604 112.26 20.2292 112.469 20.375C112.719 20.375 112.917 20.4167 113.062 20.5C113.229 20.5833 113.406 20.7083 113.594 20.875C114.073 20.5 114.521 20.1979 114.938 19.9688C115.354 19.7396 115.854 19.625 116.438 19.625C117.354 19.625 118.042 19.8333 118.5 20.25C118.979 20.6667 119.323 21.3333 119.531 22.25C119.885 21.8958 120.208 21.5729 120.5 21.2812C120.792 20.9688 121.104 20.7083 121.438 20.5C121.792 20.2708 122.167 20.1042 122.562 20C122.958 19.875 123.406 19.8125 123.906 19.8125C124.323 19.8125 124.729 19.9688 125.125 20.2812C125.521 20.5938 125.802 20.9375 125.969 21.3125C125.969 21.3958 125.969 21.5833 125.969 21.875C125.969 22.1667 125.969 22.3646 125.969 22.4688C125.969 23.1771 125.885 23.8646 125.719 24.5312C125.552 25.1771 125.469 25.8438 125.469 26.5312C125.469 26.8229 125.5 27.125 125.562 27.4375C125.646 27.7292 125.875 27.875 126.25 27.875C126.75 27.875 127.198 27.7708 127.594 27.5625C128.01 27.3542 128.385 27.1042 128.719 26.8125C129.073 26.5 129.385 26.1667 129.656 25.8125C129.948 25.4583 130.208 25.1354 130.438 24.8438C130.688 24.5312 130.917 24.2708 131.125 24.0625C131.333 23.8542 131.542 23.75 131.75 23.75C131.896 23.75 132.052 23.8125 132.219 23.9375C132.406 24.0417 132.5 24.1771 132.5 24.3438C132.5 24.3646 132.49 24.3958 132.469 24.4375C132.469 24.4792 132.469 24.5104 132.469 24.5312C132.26 25.1771 131.958 25.7917 131.562 26.375C131.167 26.9583 130.708 27.4792 130.188 27.9375C129.667 28.375 129.083 28.7292 128.438 29C127.812 29.25 127.146 29.375 126.438 29.375C125.771 29.375 125.208 29.2917 124.75 29.125C124.292 28.9375 123.938 28.5208 123.688 27.875C123.688 27.8125 123.677 27.6771 123.656 27.4688C123.656 27.2396 123.656 27.1042 123.656 27.0625C123.656 26.2708 123.729 25.5104 123.875 24.7812C124.042 24.0521 124.125 23.3125 124.125 22.5625C124.125 22.5 124.115 22.3646 124.094 22.1562C124.094 21.9479 124.094 21.8125 124.094 21.75C124.01 21.6458 123.875 21.5938 123.688 21.5938C123.521 21.5938 123.365 21.5938 123.219 21.5938C122.781 21.5938 122.365 21.75 121.969 22.0625C121.573 22.375 121.208 22.7708 120.875 23.25C120.542 23.7292 120.24 24.2708 119.969 24.875C119.719 25.4583 119.5 26.0521 119.312 26.6562C119.125 27.2396 118.969 27.7917 118.844 28.3125C118.74 28.8125 118.677 29.2292 118.656 29.5625L118.312 29.875H117.25C117.062 29.875 116.958 29.7812 116.938 29.5938C116.938 29.3854 116.938 29.2292 116.938 29.125C116.938 28.625 116.969 28.125 117.031 27.625C117.115 27.1042 117.198 26.5938 117.281 26.0938C117.385 25.5729 117.479 25.0521 117.562 24.5312C117.646 24.0104 117.698 23.5 117.719 23C117.698 22.8333 117.677 22.6562 117.656 22.4688C117.635 22.2604 117.594 22.0729 117.531 21.9062C117.469 21.7396 117.375 21.6042 117.25 21.5C117.125 21.375 116.948 21.3125 116.719 21.3125C116.385 21.3125 116.062 21.375 115.75 21.5C115.438 21.625 115.146 21.7917 114.875 22C114.625 22.1875 114.396 22.4271 114.188 22.7188C114 22.9896 113.865 23.2917 113.781 23.625L111.906 29.6875L111.625 30C111.625 30 111.562 30 111.438 30C111.312 30.0208 111.219 30.0312 111.156 30.0312C110.927 30.0312 110.688 30.0104 110.438 29.9688C110.208 29.9062 110.094 29.7083 110.094 29.375V29.25ZM131.406 28.2188C131.406 27.4896 131.49 26.7812 131.656 26.0938C131.823 25.4062 132.052 24.7292 132.344 24.0625C132.531 23.3542 132.74 22.6979 132.969 22.0938C133.198 21.4688 133.427 20.9375 133.656 20.5C133.906 20.0417 134.156 19.6875 134.406 19.4375C134.656 19.1667 134.917 19.0312 135.188 19.0312C135.458 19.0312 135.656 19.1146 135.781 19.2812C135.927 19.4271 136 19.6354 136 19.9062V20.0938L134.469 23.75C134.448 23.7917 134.396 23.875 134.312 24C134.229 24.1042 134.188 24.1771 134.188 24.2188V24.3438C134.146 24.4479 134.083 24.6146 134 24.8438C133.938 25.0729 133.865 25.3229 133.781 25.5938C133.698 25.8438 133.615 26.0833 133.531 26.3125C133.469 26.5417 133.427 26.6979 133.406 26.7812C133.365 26.8854 133.333 27.0521 133.312 27.2812C133.292 27.5104 133.281 27.6562 133.281 27.7188C133.281 27.7604 133.292 27.8438 133.312 27.9688C133.333 28.0729 133.365 28.1458 133.406 28.1875C134.198 27.875 135.042 27.4062 135.938 26.7812C136.854 26.1354 137.729 25.4167 138.562 24.625C139.396 23.8333 140.135 23.0104 140.781 22.1562C141.448 21.2812 141.938 20.4375 142.25 19.625C142.292 19.6042 142.396 19.5729 142.562 19.5312C142.729 19.4896 142.833 19.4688 142.875 19.4688C142.896 19.4688 142.917 19.4688 142.938 19.4688C142.979 19.4688 143.01 19.4688 143.031 19.4688C143.24 19.4688 143.417 19.5625 143.562 19.75C143.729 19.9375 143.812 20.125 143.812 20.3125C143.812 20.3333 143.802 20.375 143.781 20.4375C143.781 20.5 143.781 20.5417 143.781 20.5625C143.406 21.4583 143.083 22.3125 142.812 23.125C142.542 23.9375 142.406 24.8125 142.406 25.75C142.406 26.1458 142.417 26.4688 142.438 26.7188C142.479 26.9479 142.573 27.2812 142.719 27.7188C142.74 27.8229 142.781 27.875 142.844 27.875C142.927 27.875 143 27.875 143.062 27.875C143.688 27.875 144.312 27.6354 144.938 27.1562C145.562 26.6771 146.125 26.0938 146.625 25.4062C147.146 24.6979 147.562 23.9583 147.875 23.1875C148.188 22.4167 148.344 21.7396 148.344 21.1562C148.344 20.8438 148.312 20.5521 148.25 20.2812C148.208 19.9896 148.188 19.6979 148.188 19.4062C148.188 19.1354 148.26 18.8958 148.406 18.6875C148.552 18.4792 148.76 18.375 149.031 18.375C149.219 18.375 149.396 18.4375 149.562 18.5625C149.729 18.6667 149.885 18.7917 150.031 18.9375C150.198 19.0833 150.365 19.2188 150.531 19.3438C150.698 19.4688 150.885 19.5625 151.094 19.625C151.594 19.625 151.979 19.625 152.25 19.625C152.542 19.625 152.76 19.625 152.906 19.625C153.073 19.625 153.208 19.6146 153.312 19.5938C153.417 19.5521 153.542 19.5 153.688 19.4375C153.833 19.3542 154.031 19.25 154.281 19.125C154.552 19 154.906 18.8333 155.344 18.625C155.365 18.6042 155.406 18.5938 155.469 18.5938C155.531 18.5938 155.573 18.5938 155.594 18.5938C155.781 18.5938 155.948 18.6562 156.094 18.7812C156.24 18.9062 156.312 19.0729 156.312 19.2812C156.312 19.5104 156.25 19.6979 156.125 19.8438C156.021 19.9688 155.885 20.0833 155.719 20.1875C155.552 20.2708 155.365 20.3542 155.156 20.4375C154.969 20.5 154.792 20.5521 154.625 20.5938C154.146 20.7812 153.771 20.9167 153.5 21C153.25 21.0625 153.052 21.1146 152.906 21.1562C152.781 21.1771 152.677 21.1979 152.594 21.2188C152.51 21.2188 152.385 21.2188 152.219 21.2188C152.073 21.2188 151.865 21.2292 151.594 21.25C151.344 21.25 150.979 21.2708 150.5 21.3125C150.458 21.3125 150.396 21.3333 150.312 21.375C150.25 21.4167 150.208 21.4479 150.188 21.4688C150.062 22.4062 149.771 23.3646 149.312 24.3438C148.875 25.3021 148.302 26.1875 147.594 27C146.885 27.7917 146.062 28.4375 145.125 28.9375C144.208 29.4375 143.25 29.6875 142.25 29.6875C142.042 29.6875 141.844 29.6042 141.656 29.4375C141.49 29.25 141.333 29.0417 141.188 28.8125C141.062 28.5833 140.958 28.3542 140.875 28.125C140.792 27.875 140.74 27.6875 140.719 27.5625C140.698 27.4792 140.667 27.3229 140.625 27.0938C140.604 26.8646 140.573 26.6146 140.531 26.3438C140.51 26.0729 140.479 25.8333 140.438 25.625C140.417 25.3958 140.406 25.2292 140.406 25.125C140.031 25.5208 139.542 26 138.938 26.5625C138.333 27.1042 137.677 27.6354 136.969 28.1562C136.26 28.6562 135.542 29.0938 134.812 29.4688C134.104 29.8229 133.458 30 132.875 30C132.333 30 131.948 29.8125 131.719 29.4375C131.51 29.0625 131.406 28.6562 131.406 28.2188ZM155.312 29.0625C155.312 29 155.312 28.8438 155.312 28.5938C155.312 28.3438 155.312 28.1771 155.312 28.0938C154.958 26.8438 154.906 25.6146 155.156 24.4062C155.427 23.1979 155.896 22.1146 156.562 21.1562C157.25 20.1771 158.115 19.3646 159.156 18.7188C160.219 18.0521 161.375 17.6458 162.625 17.5H163.188C163.646 17.5 164.021 17.6042 164.312 17.8125C164.625 18 164.865 18.25 165.031 18.5625C165.219 18.875 165.344 19.2292 165.406 19.625C165.49 20.0208 165.531 20.4167 165.531 20.8125C165.531 21.3542 165.469 21.8854 165.344 22.4062C165.24 22.9062 165.115 23.4167 164.969 23.9375C164.844 24.4583 164.719 24.9792 164.594 25.5C164.49 26 164.438 26.5312 164.438 27.0938V27.2812C164.458 27.3229 164.479 27.4479 164.5 27.6562C164.542 27.8438 164.573 27.9583 164.594 28C164.635 28 164.74 28.0104 164.906 28.0312C165.073 28.0312 165.177 28.0312 165.219 28.0312C165.427 28.0312 165.625 28.0312 165.812 28.0312C166.021 28.0104 166.229 27.9583 166.438 27.875L172.375 25.125C172.396 25.125 172.427 25.125 172.469 25.125C172.531 25.1042 172.573 25.0938 172.594 25.0938C172.802 25.0938 172.969 25.1562 173.094 25.2812C173.24 25.4062 173.312 25.5729 173.312 25.7812C173.312 25.8854 173.302 25.9896 173.281 26.0938C173.281 26.1771 173.229 26.2604 173.125 26.3438C172.979 26.4479 172.708 26.5938 172.312 26.7812C171.938 26.9688 171.531 27.1771 171.094 27.4062C170.656 27.6354 170.24 27.8542 169.844 28.0625C169.469 28.2708 169.198 28.4062 169.031 28.4688C168.74 28.6354 168.417 28.7917 168.062 28.9375C167.708 29.0625 167.344 29.1875 166.969 29.3125C166.594 29.4375 166.219 29.5417 165.844 29.625C165.49 29.6875 165.167 29.7188 164.875 29.7188C164.417 29.7188 164.042 29.6458 163.75 29.5C163.458 29.3333 163.24 29.125 163.094 28.875C162.948 28.6042 162.844 28.2917 162.781 27.9375C162.74 27.5625 162.74 27.1771 162.781 26.7812C162.365 27.1146 161.917 27.4688 161.438 27.8438C160.958 28.2188 160.458 28.5625 159.938 28.875C159.417 29.1875 158.885 29.4583 158.344 29.6875C157.802 29.9167 157.25 30.0312 156.688 30.0312C156.375 30.0312 156.094 29.9583 155.844 29.8125C155.594 29.6458 155.417 29.3958 155.312 29.0625ZM157 28.4062C157.479 28.4062 158.01 28.2708 158.594 28C159.177 27.7083 159.75 27.3542 160.312 26.9375C160.875 26.5208 161.385 26.0833 161.844 25.625C162.302 25.1458 162.656 24.7188 162.906 24.3438C162.927 23.7188 163.01 23.125 163.156 22.5625C163.323 21.9792 163.406 21.3854 163.406 20.7812C163.406 20.7396 163.396 20.6771 163.375 20.5938C163.375 20.5104 163.375 20.4479 163.375 20.4062C163.104 20.1771 162.875 20.0417 162.688 20C162.5 19.9583 162.25 19.9375 161.938 19.9375C161.896 19.9375 161.802 19.9375 161.656 19.9375C161.531 19.9375 161.448 19.9479 161.406 19.9688C161.281 20.0729 161.073 20.2708 160.781 20.5625C160.49 20.8333 160.177 21.1354 159.844 21.4688C159.531 21.8021 159.229 22.1146 158.938 22.4062C158.667 22.6979 158.479 22.8958 158.375 23C158.354 23 158.312 23.0417 158.25 23.125C158.188 23.1875 158.115 23.2708 158.031 23.375C157.969 23.4792 157.906 23.5833 157.844 23.6875C157.802 23.7708 157.771 23.8438 157.75 23.9062L157 27.5625V28.4062ZM170.625 37.875C170.625 36.5208 170.927 35.2708 171.531 34.125C172.115 33 172.865 31.9688 173.781 31.0312C174.719 30.1146 175.75 29.2917 176.875 28.5625C178.021 27.8333 179.135 27.1979 180.219 26.6562L181.125 23.75C181.021 23.875 180.812 24.0833 180.5 24.375C180.208 24.6667 179.896 24.9792 179.562 25.3125C179.229 25.625 178.906 25.9271 178.594 26.2188C178.281 26.4896 178.062 26.6771 177.938 26.7812C177.688 26.9896 177.385 27.2292 177.031 27.5C176.677 27.7708 176.292 28.0312 175.875 28.2812C175.479 28.5104 175.073 28.7083 174.656 28.875C174.24 29.0208 173.865 29.0938 173.531 29.0938C173.073 29.0938 172.771 28.9896 172.625 28.7812C172.5 28.5521 172.438 28.2292 172.438 27.8125C172.438 27.4792 172.458 27.1354 172.5 26.7812C172.562 26.4271 172.552 26.0729 172.469 25.7188L173.688 22.4062C173.875 22.2188 174.052 21.9271 174.219 21.5312C174.406 21.1354 174.583 20.7396 174.75 20.3438C174.938 19.9479 175.125 19.6042 175.312 19.3125C175.521 19.0208 175.74 18.875 175.969 18.875C176.219 18.875 176.427 18.9479 176.594 19.0938C176.781 19.2396 176.875 19.4479 176.875 19.7188C176.875 19.9271 176.844 20.1146 176.781 20.2812C176.74 20.4271 176.667 20.625 176.562 20.875C176.292 21.4375 176.021 21.9688 175.75 22.4688C175.5 22.9688 175.26 23.4688 175.031 23.9688C174.823 24.4688 174.646 24.9896 174.5 25.5312C174.375 26.0521 174.312 26.6354 174.312 27.2812H174.438C174.438 27.2812 174.5 27.25 174.625 27.1875C174.75 27.1042 174.885 27.0208 175.031 26.9375C175.198 26.8333 175.365 26.7292 175.531 26.625C175.698 26.5208 175.844 26.4271 175.969 26.3438C177.115 25.5938 178.125 24.7188 179 23.7188C179.875 22.6979 180.74 21.6458 181.594 20.5625C181.677 20.4375 181.75 20.3438 181.812 20.2812C181.875 20.2188 181.927 20.1771 181.969 20.1562C182.01 20.1146 182.062 20.0938 182.125 20.0938C182.188 20.0938 182.281 20.0938 182.406 20.0938C182.698 20.0938 182.927 20.1562 183.094 20.2812C183.281 20.3854 183.396 20.6354 183.438 21.0312C183.458 21.3021 183.438 21.6354 183.375 22.0312C183.312 22.4062 183.229 22.7812 183.125 23.1562C183.021 23.5312 182.906 23.9062 182.781 24.2812C182.677 24.6354 182.583 24.9167 182.5 25.125V25.5938C182.542 25.5729 182.635 25.5417 182.781 25.5C182.948 25.4583 183.062 25.4271 183.125 25.4062C183.25 25.3854 183.594 25.2708 184.156 25.0625C184.719 24.8542 185.323 24.6354 185.969 24.4062C186.635 24.1562 187.25 23.9271 187.812 23.7188C188.375 23.5104 188.729 23.375 188.875 23.3125H188.938C189.083 23.3125 189.208 23.3646 189.312 23.4688C189.438 23.5729 189.5 23.6979 189.5 23.8438C189.5 23.9896 189.448 24.1146 189.344 24.2188C189.26 24.3229 189.156 24.4167 189.031 24.5C188.906 24.5625 188.771 24.625 188.625 24.6875C188.479 24.75 188.354 24.8021 188.25 24.8438C188.104 24.9271 187.896 25.0312 187.625 25.1562C187.354 25.2604 187.042 25.3854 186.688 25.5312C186.354 25.6562 186 25.8021 185.625 25.9688C185.25 26.1354 184.885 26.2917 184.531 26.4375C183.677 26.7917 182.75 27.1667 181.75 27.5625L179 37.9375C178.875 38.4375 178.635 38.9583 178.281 39.5C177.948 40.0417 177.552 40.5417 177.094 41C176.635 41.4583 176.125 41.8229 175.562 42.0938C175.021 42.3854 174.469 42.5312 173.906 42.5312C173.323 42.5312 172.823 42.375 172.406 42.0625C171.99 41.7708 171.646 41.3854 171.375 40.9062C171.104 40.4479 170.917 39.9479 170.812 39.4062C170.688 38.8646 170.625 38.3542 170.625 37.875ZM172.312 37.875C172.312 38.1458 172.333 38.4479 172.375 38.7812C172.438 39.1146 172.542 39.4375 172.688 39.75C172.833 40.0625 173.01 40.3229 173.219 40.5312C173.448 40.7396 173.74 40.8438 174.094 40.8438C174.552 40.8438 174.969 40.6979 175.344 40.4062C175.74 40.1354 176.083 39.7917 176.375 39.375C176.688 38.9792 176.948 38.5521 177.156 38.0938C177.365 37.6354 177.531 37.2292 177.656 36.875C177.719 36.625 177.812 36.2708 177.938 35.8125C178.062 35.375 178.177 34.9375 178.281 34.5C178.406 34.0625 178.51 33.6667 178.594 33.3125C178.677 32.9792 178.719 32.7812 178.719 32.7188V32.5938L179.625 28.6562C178.792 28.9271 177.938 29.3854 177.062 30.0312C176.208 30.6771 175.427 31.4271 174.719 32.2812C174.01 33.1354 173.427 34.0521 172.969 35.0312C172.531 36.0104 172.312 36.9583 172.312 37.875ZM188.375 24.3438C188.375 24.3438 188.385 24.3333 188.406 24.3125C188.448 24.2708 188.479 24.2396 188.5 24.2188C188.542 24.0312 188.625 23.7083 188.75 23.25C188.875 22.7917 189.01 22.3021 189.156 21.7812C189.302 21.2396 189.438 20.7396 189.562 20.2812C189.708 19.8229 189.812 19.5104 189.875 19.3438C189.896 19.2604 189.958 19.0833 190.062 18.8125C190.188 18.5208 190.323 18.2083 190.469 17.875C190.615 17.5417 190.76 17.2083 190.906 16.875C191.052 16.5417 191.156 16.2917 191.219 16.125C191.365 15.8333 191.583 15.4479 191.875 14.9688C192.188 14.4896 192.531 14.0417 192.906 13.625C193.302 13.1875 193.708 12.8125 194.125 12.5C194.542 12.1667 194.927 12 195.281 12C195.469 12 195.615 12.0521 195.719 12.1562C195.844 12.2604 195.927 12.3854 195.969 12.5312C196.031 12.6562 196.073 12.8021 196.094 12.9688C196.115 13.1354 196.125 13.2812 196.125 13.4062C196.125 14.4896 195.969 15.5729 195.656 16.6562C195.365 17.7188 194.958 18.7396 194.438 19.7188C193.917 20.6979 193.292 21.625 192.562 22.5C191.854 23.3542 191.104 24.125 190.312 24.8125C190.292 24.875 190.26 25 190.219 25.1875C190.198 25.375 190.177 25.5104 190.156 25.5938V25.6562C190.156 26.0729 190.26 26.4062 190.469 26.6562C190.698 26.9062 190.969 27.0938 191.281 27.2188C191.594 27.3229 191.938 27.3958 192.312 27.4375C192.708 27.4792 193.083 27.5 193.438 27.5C193.625 27.5 193.896 27.4062 194.25 27.2188C194.625 27.0312 195 26.8229 195.375 26.5938C195.771 26.3438 196.156 26.125 196.531 25.9375C196.906 25.75 197.188 25.6562 197.375 25.6562C197.562 25.6562 197.708 25.7188 197.812 25.8438C197.917 25.9688 197.969 26.125 197.969 26.3125C197.969 26.625 197.729 26.9583 197.25 27.3125C196.771 27.6667 196.219 28 195.594 28.3125C194.969 28.6042 194.365 28.8542 193.781 29.0625C193.219 29.2708 192.844 29.375 192.656 29.375C192.031 29.5 191.448 29.5104 190.906 29.4062C190.365 29.2812 189.896 29.0833 189.5 28.8125C189.104 28.5208 188.771 28.1771 188.5 27.7812C188.25 27.3646 188.094 26.9375 188.031 26.5L188.375 24.3438ZM194.281 15.0312C194.094 15.0312 193.875 15.1875 193.625 15.5C193.396 15.7917 193.167 16.1354 192.938 16.5312C192.708 16.9271 192.5 17.3125 192.312 17.6875C192.146 18.0417 192.052 18.2812 192.031 18.4062C191.969 18.5521 191.875 18.7917 191.75 19.125C191.625 19.4583 191.5 19.8125 191.375 20.1875C191.25 20.5417 191.125 20.8854 191 21.2188C190.896 21.5521 190.823 21.7917 190.781 21.9375H190.938C190.938 21.9375 191 21.8646 191.125 21.7188C191.25 21.5521 191.385 21.3646 191.531 21.1562C191.698 20.9479 191.865 20.7396 192.031 20.5312C192.219 20.3021 192.354 20.1146 192.438 19.9688C192.521 19.8438 192.635 19.6562 192.781 19.4062C192.927 19.1354 193.021 18.9688 193.062 18.9062C193.146 18.6771 193.26 18.375 193.406 18C193.552 17.6042 193.688 17.2188 193.812 16.8438C193.938 16.4688 194.042 16.1458 194.125 15.875C194.229 15.5833 194.281 15.4167 194.281 15.375V15.0312ZM197.375 25.125C197.417 25 197.479 24.7812 197.562 24.4688C197.667 24.1354 197.76 23.7812 197.844 23.4062C197.948 23.0312 198.031 22.6771 198.094 22.3438C198.177 21.9896 198.24 21.75 198.281 21.625C198.406 21.125 198.552 20.5833 198.719 20C198.906 19.4167 199.156 18.875 199.469 18.375C199.781 17.875 200.177 17.4688 200.656 17.1562C201.156 16.8229 201.771 16.6562 202.5 16.6562C202.771 16.6562 202.958 16.7604 203.062 16.9688C203.188 17.1562 203.292 17.3646 203.375 17.5938C203.375 17.6771 203.375 17.8333 203.375 18.0625C203.396 18.2708 203.406 18.4167 203.406 18.5C203.406 19.3958 203.312 20.1875 203.125 20.875C202.958 21.5625 202.688 22.1979 202.312 22.7812C201.958 23.3646 201.521 23.9167 201 24.4375C200.479 24.9375 199.885 25.4688 199.219 26.0312C199.198 26.0938 199.167 26.1979 199.125 26.3438C199.083 26.4896 199.062 26.5938 199.062 26.6562V26.7188C199.062 27.0938 199.125 27.3958 199.25 27.625C199.375 27.8542 199.542 28.0417 199.75 28.1875C199.979 28.3125 200.229 28.3958 200.5 28.4375C200.792 28.4583 201.104 28.4688 201.438 28.4688C202.417 28.4688 203.354 28.3333 204.25 28.0625C205.146 27.7917 205.969 27.3542 206.719 26.75C206.823 26.6458 206.948 26.5 207.094 26.3125C207.26 26.1042 207.427 25.8958 207.594 25.6875C207.76 25.4792 207.938 25.3021 208.125 25.1562C208.312 24.9896 208.51 24.9062 208.719 24.9062C208.927 24.9062 209.052 24.9896 209.094 25.1562C209.135 25.3229 209.156 25.4896 209.156 25.6562C209.156 26.1146 209.01 26.5521 208.719 26.9688C208.448 27.3646 208.083 27.7292 207.625 28.0625C207.188 28.375 206.677 28.6562 206.094 28.9062C205.531 29.1562 204.969 29.3646 204.406 29.5312C203.844 29.6979 203.302 29.8229 202.781 29.9062C202.281 29.9896 201.854 30.0312 201.5 30.0312C200.396 30.0312 199.469 29.8542 198.719 29.5C197.99 29.125 197.49 28.3854 197.219 27.2812L197.375 25.125ZM201.844 18.9688C201.427 19.3438 201.094 19.6875 200.844 20C200.615 20.2917 200.427 20.6042 200.281 20.9375C200.156 21.25 200.042 21.5938 199.938 21.9688C199.854 22.3438 199.76 22.7812 199.656 23.2812C200.052 22.9688 200.375 22.6562 200.625 22.3438C200.896 22.0312 201.115 21.7083 201.281 21.375C201.448 21.0417 201.573 20.6875 201.656 20.3125C201.74 19.9167 201.802 19.4688 201.844 18.9688Z" fill="black"/>
<path d="M6.094 16.5727C6.57549 16.4327 7.09247 16.4843 7.53673 16.7168L9.95548 17.9827L15.5555 20.1537L21.7777 23.4102L23.9925 24.5693C24.584 24.8789 25.2316 25.0669 25.897 25.1221L37.9554 26.1239L53.8412 26.6017C54.6109 26.6248 54.9527 27.58 54.3724 28.0862C54.2182 28.2207 54.0204 28.2948 53.8158 28.2948H52.8887H53.3157C53.4416 28.2948 53.5632 28.3404 53.6581 28.4232C54.0268 28.7448 53.789 29.3513 53.3 29.3366L36.711 28.8376L24.0501 27.3316C23.372 27.251 22.7176 27.0322 22.1272 26.6889L16.17 23.2248C15.7624 22.9877 15.3232 22.8095 14.8657 22.6955L7.07629 20.7542C6.92209 20.7158 6.7723 20.6615 6.62929 20.5922L5.78931 20.1852C4.18879 19.4096 4.38619 17.0692 6.094 16.5727Z" fill="#2D635E"/>
<path d="M10.0201 30.1622C9.99378 30.1384 10.0063 30.0947 10.0412 30.0885L13.2561 29.5132C13.7492 29.425 14.2263 29.2631 14.6714 29.0331L16.8 27.9328L20.1749 25.847C21.0305 25.3182 22.0164 25.0381 23.0222 25.0381C23.5989 25.0381 24.1201 24.6948 24.3479 24.1651L24.5909 23.5999C24.5931 23.5948 24.5988 23.5922 24.6041 23.5941L29.1828 25.1916C30.0128 25.4812 30.3495 26.4738 29.867 27.2085C29.8668 27.2089 29.8665 27.2093 29.8664 27.2097C29.2688 28.6256 28.2816 29.8468 27.0213 30.7262L26.7542 30.9126C26.1464 31.3367 25.49 31.6864 24.7989 31.9543L22.1059 32.9984C18.0577 34.3401 13.6007 33.4011 10.4379 30.5401L10.0201 30.1622Z" fill="#2D635E"/>
<path d="M26.7042 8.78533C26.6025 8.59844 26.3205 8.66296 26.2844 8.88139L25.6356 12.8056L25.2188 15.6468L24.5649 18.3475C24.103 20.2554 23.9018 22.2052 23.9673 24.1391C23.968 24.1592 23.9744 24.1784 23.9858 24.1941L24.5065 24.9155L25.1263 25.984C25.1301 25.9904 25.136 25.9951 25.143 25.9973L26.3379 26.3593C26.6123 26.4424 26.8594 26.5934 27.0584 26.7994L27.5078 27.2646C28.4487 28.2388 30.1337 27.4874 30.1801 26.073C30.1829 25.9868 30.1925 25.9006 30.2089 25.8152L30.4412 24.6021C30.8355 22.5437 30.8544 20.45 30.4969 18.4296L30.3655 17.6868C29.9881 15.5534 29.2784 13.5155 28.263 11.6497L26.7042 8.78533Z" fill="#2D635E"/>
<path d="M2.34662 7.15177C3.44171 5.62342 5.06908 4.56017 6.90859 4.17119L8.90878 3.74824C10.2237 3.47019 11.4865 2.9867 12.6509 2.31556L14.9084 1.01435C14.9192 1.00812 14.9326 1.01625 14.9321 1.0287L14.9029 1.73266C14.7297 5.91017 12.5386 9.74338 9.02676 12.0125C7.60621 12.8385 7.02598 14.5951 7.67502 16.1048L8.40015 17.7915C8.40298 17.7981 8.40332 17.8055 8.40112 17.8123L7.66045 20.0982C7.54491 20.4548 7.21277 20.6963 6.83794 20.6963C6.42951 20.6963 6.02315 20.6385 5.63097 20.5244L3.73767 19.974C3.73479 19.9731 3.73201 19.9719 3.72942 19.9704C1.46098 18.6513 0.180604 16.1213 0.461022 13.5123L0.621405 12.02C0.621946 12.015 0.62325 12.0101 0.625273 12.0055L0.934769 11.296C0.936827 11.2912 0.937889 11.2861 0.937889 11.281C0.937889 9.87429 1.37849 8.50292 2.19781 7.35945L2.34662 7.15177Z" fill="#2D635E"/>
<path d="M4.12316 8.04855C3.54848 8.52141 3.26473 9.59065 3.1947 10.0662C3.09031 10.5325 2.95604 10.2568 2.79512 10.0217C2.99955 10.0625 3.30676 9.97684 2.90018 9.30848C2.4936 8.64011 2.87085 8.07897 3.1103 7.88194C3.27971 8.16043 3.66056 8.43209 3.82866 7.29086C4.03877 5.86433 5.77358 6.94415 5.16029 6.82197C4.66966 6.72422 4.47693 7.17529 4.4419 7.41304C4.64633 7.45377 4.69784 7.57568 4.12316 8.04855Z" fill="white" stroke="white" stroke-width="0.1"/>
<path d="M13.8781 31.5237C14.3347 31.8376 15.2649 32.09 15.6729 32.177C16.0767 32.2783 15.8577 32.3066 15.6757 32.3516C15.6895 32.2644 15.5863 32.1161 15.0637 32.2212C14.5411 32.3263 14.0299 32.091 13.8397 31.9602C14.0574 31.9165 14.2481 31.7767 13.2689 31.5679C12.0448 31.307 12.7807 30.652 12.7394 30.9138C12.7064 31.1233 13.1062 31.2626 13.3102 31.3061C13.3239 31.2189 13.4215 31.2099 13.8781 31.5237Z" fill="white" stroke="white" stroke-width="0.1"/>
</svg>
