<svg width="163" height="36" viewBox="0 0 163 36" fill="none" xmlns="http://www.w3.org/2000/svg">
<path d="M61.7021 21.9778L57.0413 25.0133H56.8979C56.7385 25.0133 56.5792 24.9735 56.4198 24.8938C56.2764 24.8141 56.2047 24.6787 56.2047 24.4875C56.2047 24.36 56.2366 24.2485 56.3003 24.1529C56.38 24.0413 56.4756 23.9457 56.5871 23.866C56.7146 23.7704 56.9457 23.627 57.2803 23.4358C57.6149 23.2446 57.9655 23.0375 58.3319 22.8144C58.6984 22.5754 59.049 22.3603 59.3836 22.169C59.7342 21.9778 59.9732 21.8424 60.1007 21.7627C60.1644 21.699 60.26 21.6273 60.3875 21.5476C60.515 21.452 60.6265 21.3644 60.7221 21.2847C60.8336 21.1891 60.9293 21.1094 61.0089 21.0457C61.0886 20.9819 61.1284 20.9421 61.1284 20.9262L59.288 17.1975C59.2083 17.086 59.1605 16.9983 59.1446 16.9346C59.1446 16.8549 59.1446 16.7514 59.1446 16.6239C59.1446 16.1458 59.3756 15.9068 59.8377 15.9068C59.9015 15.9068 60.0449 15.9546 60.268 16.0502C60.507 16.1299 60.7938 16.2494 61.1284 16.4088C61.4631 16.5522 61.8136 16.7115 62.1801 16.8868C62.5466 17.0621 62.8812 17.2214 63.184 17.3648C63.4867 17.5082 63.7417 17.6357 63.9488 17.7473C64.156 17.8429 64.2595 17.8907 64.2595 17.8907L66.3868 15.6917C66.4346 15.5005 66.57 15.2695 66.7931 14.9986C67.0321 14.7277 67.2791 14.4409 67.534 14.1381C67.789 13.8354 68.0121 13.5326 68.2033 13.2299C68.3945 12.9112 68.4901 12.6244 68.4901 12.3694V12.2977L66.8409 8.44955C66.6816 8.08306 66.578 7.69267 66.5302 7.27838C66.4983 6.84815 66.4824 6.42589 66.4824 6.01159C66.4824 5.66104 66.5381 5.31048 66.6497 4.95993C66.7612 4.59344 66.9206 4.26678 67.1277 3.97996C67.3508 3.69314 67.6137 3.4621 67.9165 3.28682C68.2192 3.09561 68.5777 3 68.992 3C69.4223 3 69.7728 3.12747 70.0437 3.38242C70.3305 3.62144 70.5536 3.92419 70.7129 4.29068C70.8882 4.65717 71.0077 5.04757 71.0715 5.46186C71.1352 5.86022 71.1671 6.22671 71.1671 6.56133C71.1671 7.51739 71.0555 8.43362 70.8325 9.31001C70.6253 10.1705 70.3385 11.0548 69.972 11.9631V12.2977C70.3385 12.9829 70.7129 13.692 71.0954 14.4249C71.4778 15.1579 71.8204 15.9228 72.1231 16.7195C72.4259 17.5003 72.6729 18.289 72.8641 19.0857C73.0553 19.8665 73.1509 20.6553 73.1509 21.452C73.1509 22.0734 73.0473 22.655 72.8402 23.1968C72.649 23.7226 72.3701 24.1847 72.0036 24.5831C71.6371 24.9815 71.191 25.2922 70.6651 25.5153C70.1552 25.7383 69.5816 25.8499 68.9442 25.8499C68.2272 25.8499 67.542 25.7463 66.8887 25.5392C66.2513 25.3161 65.6299 25.0293 65.0244 24.6787C64.4348 24.3122 63.8691 23.8979 63.3274 23.4358C62.8015 22.9737 62.3076 22.4877 61.8455 21.9778H61.7021ZM62.8971 21.1652C62.8971 21.1811 62.937 21.2369 63.0167 21.3325C63.1123 21.4281 63.2158 21.5396 63.3274 21.6671C63.4548 21.7786 63.5823 21.8982 63.7098 22.0256C63.8373 22.1531 63.9488 22.2567 64.0444 22.3363C64.0922 22.3842 64.1719 22.4559 64.2834 22.5515C64.4109 22.6311 64.5304 22.7267 64.642 22.8383C64.7694 22.9339 64.881 23.0295 64.9766 23.1251C65.0881 23.2048 65.1598 23.2526 65.1917 23.2685C65.2873 23.3163 65.4307 23.396 65.6219 23.5075C65.8131 23.6191 66.0043 23.7306 66.1956 23.8421C66.3868 23.9537 66.57 24.0573 66.7453 24.1529C66.9206 24.2485 67.0241 24.3042 67.056 24.3202C67.4225 24.4795 67.7571 24.5831 68.0599 24.6309C68.3786 24.6628 68.6973 24.6787 69.0159 24.6787C69.494 24.6787 69.9003 24.5911 70.2349 24.4158C70.5855 24.2246 70.8723 23.9776 71.0954 23.6748C71.3185 23.3561 71.4778 22.9976 71.5734 22.5993C71.6849 22.185 71.7407 21.7707 71.7407 21.3564C71.7407 20.9102 71.7009 20.4481 71.6212 19.9701C71.5575 19.4921 71.4459 19.0379 71.2866 18.6077L69.2072 13.6123L67.3189 16.2654L62.8971 21.0696V21.1652ZM61.0328 18.0102C61.0328 18.042 61.0408 18.1058 61.0567 18.2014C61.0886 18.2811 61.1125 18.3368 61.1284 18.3687C61.1922 18.4802 61.2718 18.6316 61.3674 18.8228C61.479 19.014 61.5826 19.1973 61.6782 19.3726C61.7897 19.5319 61.8773 19.6833 61.9411 19.8267C62.0208 19.9542 62.0686 20.0179 62.0845 20.0179H62.1801C62.2279 20.0179 62.3235 19.9542 62.4669 19.8267C62.6103 19.6833 62.7617 19.5399 62.921 19.3965C63.0804 19.2371 63.2238 19.0937 63.3513 18.9662C63.4787 18.8228 63.5505 18.7431 63.5664 18.7272L63.4469 18.6077L61.3674 18.0102H61.0328ZM67.7492 5.98769C67.7492 6.88002 67.8846 7.69267 68.1555 8.42565C68.4264 9.1427 68.769 9.89161 69.1832 10.6724C69.2629 10.6246 69.3346 10.529 69.3984 10.3856C69.4621 10.2262 69.5179 10.0589 69.5657 9.88364C69.6135 9.69243 69.6533 9.51715 69.6852 9.35781C69.7171 9.19847 69.741 9.10286 69.7569 9.07099C69.7569 9.03912 69.7649 8.95945 69.7808 8.83198C69.8127 8.7045 69.8366 8.56109 69.8525 8.40175C69.8684 8.22647 69.8844 8.05916 69.9003 7.89982C69.9322 7.74047 69.9561 7.62097 69.972 7.54129V7.46959C69.972 7.40585 69.964 7.20667 69.9481 6.87205C69.9481 6.53743 69.9242 6.17891 69.8764 5.79648C69.8286 5.39812 69.741 5.04757 69.6135 4.74481C69.486 4.42613 69.2948 4.26678 69.0398 4.26678C68.7849 4.26678 68.5698 4.31458 68.3945 4.41019C68.2192 4.5058 68.0838 4.63327 67.9882 4.79262C67.9085 4.95196 67.8448 5.1352 67.797 5.34235C67.7651 5.5495 67.7492 5.76461 67.7492 5.98769Z" fill="black"/>
<path d="M74.2504 25.2284C74.2504 25.1806 74.2504 25.0611 74.2504 24.8699C74.2504 24.6787 74.2504 24.5512 74.2504 24.4875C73.9795 23.5314 73.9397 22.5913 74.1309 21.6671C74.338 20.7429 74.6965 19.9143 75.2064 19.1813C75.7323 18.4324 76.3935 17.811 77.1903 17.317C78.0029 16.8071 78.8873 16.4964 79.8433 16.3849H80.2736C80.6241 16.3849 80.9109 16.4645 81.134 16.6239C81.373 16.7673 81.5563 16.9585 81.6838 17.1975C81.8272 17.4365 81.9228 17.7074 81.9706 18.0102C82.0343 18.3129 82.0662 18.6157 82.0662 18.9184C82.0662 19.3327 82.0184 19.739 81.9228 20.1374C81.8431 20.5198 81.7475 20.9102 81.636 21.3086C81.5403 21.7069 81.4447 22.1053 81.3491 22.5037C81.2695 22.8861 81.2296 23.2924 81.2296 23.7226V23.866C81.2456 23.8979 81.2615 23.9935 81.2774 24.1529C81.3093 24.2963 81.3332 24.3839 81.3491 24.4158C81.381 24.4158 81.4607 24.4237 81.5882 24.4397C81.7156 24.4397 81.7953 24.4397 81.8272 24.4397C81.9865 24.4397 82.1379 24.4397 82.2813 24.4397C82.4406 24.4237 82.6 24.3839 82.7593 24.3202L87.3006 22.2168C87.3166 22.2168 87.3405 22.2168 87.3723 22.2168C87.4201 22.2009 87.452 22.1929 87.4679 22.1929C87.6273 22.1929 87.7547 22.2407 87.8504 22.3363C87.9619 22.432 88.0177 22.5594 88.0177 22.7188C88.0177 22.7984 88.0097 22.8781 87.9938 22.9578C87.9938 23.0215 87.9539 23.0853 87.8743 23.149C87.7627 23.2287 87.5556 23.3402 87.2528 23.4836C86.966 23.627 86.6553 23.7864 86.3207 23.9617C85.986 24.1369 85.6673 24.3042 85.3646 24.4636C85.0778 24.6229 84.8706 24.7265 84.7432 24.7743C84.5201 24.9018 84.2731 25.0213 84.0022 25.1328C83.7313 25.2284 83.4525 25.324 83.1657 25.4196C82.8788 25.5153 82.592 25.5949 82.3052 25.6587C82.0343 25.7065 81.7873 25.7304 81.5642 25.7304C81.2137 25.7304 80.9269 25.6746 80.7038 25.5631C80.4807 25.4356 80.3134 25.2762 80.2019 25.085C80.0903 24.8779 80.0106 24.6389 79.9628 24.368C79.931 24.0812 79.931 23.7864 79.9628 23.4836C79.6442 23.7386 79.3016 24.0095 78.9351 24.2963C78.5686 24.5831 78.1862 24.846 77.7878 25.085C77.3894 25.324 76.9831 25.5312 76.5688 25.7065C76.1545 25.8817 75.7323 25.9694 75.302 25.9694C75.063 25.9694 74.8479 25.9136 74.6567 25.8021C74.4655 25.6746 74.33 25.4834 74.2504 25.2284ZM75.5411 24.7265C75.9076 24.7265 76.3139 24.6229 76.76 24.4158C77.2062 24.1927 77.6444 23.9218 78.0746 23.6031C78.5049 23.2844 78.8952 22.9498 79.2458 22.5993C79.5964 22.2328 79.8672 21.9061 80.0585 21.6193C80.0744 21.1413 80.1381 20.6871 80.2497 20.2569C80.3771 19.8108 80.4409 19.3566 80.4409 18.8945C80.4409 18.8627 80.4329 18.8149 80.417 18.7511C80.417 18.6874 80.417 18.6396 80.417 18.6077C80.2098 18.4324 80.0345 18.3289 79.8911 18.297C79.7477 18.2651 79.5565 18.2492 79.3175 18.2492C79.2856 18.2492 79.2139 18.2492 79.1024 18.2492C79.0068 18.2492 78.943 18.2572 78.9112 18.2731C78.8156 18.3528 78.6562 18.5041 78.4331 18.7272C78.2101 18.9344 77.9711 19.1654 77.7161 19.4204C77.4771 19.6753 77.246 19.9143 77.023 20.1374C76.8158 20.3605 76.6724 20.5119 76.5927 20.5915C76.5768 20.5915 76.5449 20.6234 76.4971 20.6871C76.4493 20.7349 76.3935 20.7987 76.3298 20.8784C76.282 20.958 76.2342 21.0377 76.1864 21.1174C76.1545 21.1811 76.1306 21.2369 76.1147 21.2847L75.5411 24.0812V24.7265Z" fill="black"/>
<path d="M87.205 25.3718C87.2528 24.9735 87.3166 24.599 87.3962 24.2485C87.4759 23.882 87.5635 23.5235 87.6591 23.1729C87.7547 22.8223 87.8583 22.4638 87.9699 22.0973C88.0973 21.7149 88.2328 21.2847 88.3762 20.8067V20.6871C87.7388 21.0536 87.2847 21.2369 87.0138 21.2369C86.7589 21.2369 86.6314 21.1413 86.6314 20.9501C86.6154 20.7588 86.6951 20.5039 86.8704 20.1852C87.0616 19.8665 87.2847 19.5717 87.5396 19.3009C87.8105 19.03 88.0814 18.8149 88.3523 18.6555C88.6391 18.4962 88.8622 18.4723 89.0215 18.5838C89.2127 18.5838 89.3641 18.6157 89.4757 18.6794C89.6031 18.7431 89.7386 18.8388 89.882 18.9662C90.2485 18.6794 90.5911 18.4484 90.9098 18.2731C91.2284 18.0978 91.6109 18.0102 92.057 18.0102C92.7581 18.0102 93.284 18.1695 93.6345 18.4882C94.001 18.8069 94.2639 19.3168 94.4233 20.0179C94.6942 19.747 94.9411 19.5 95.1642 19.277C95.3873 19.0379 95.6263 18.8388 95.8813 18.6794C96.1522 18.5041 96.439 18.3767 96.7417 18.297C97.0445 18.2014 97.3871 18.1536 97.7695 18.1536C98.0882 18.1536 98.3989 18.2731 98.7017 18.5121C99.0044 18.7511 99.2195 19.014 99.347 19.3009C99.347 19.3646 99.347 19.508 99.347 19.7311C99.347 19.9542 99.347 20.1055 99.347 20.1852C99.347 20.727 99.2833 21.2528 99.1558 21.7627C99.0283 22.2567 98.9646 22.7666 98.9646 23.2924C98.9646 23.5155 98.9885 23.7465 99.0363 23.9856C99.1 24.2086 99.2753 24.3202 99.5621 24.3202C99.9445 24.3202 100.287 24.2405 100.59 24.0812C100.909 23.9218 101.195 23.7306 101.45 23.5075C101.721 23.2685 101.96 23.0136 102.167 22.7427C102.39 22.4718 102.59 22.2248 102.765 22.0017C102.956 21.7627 103.131 21.5635 103.291 21.4042C103.45 21.2448 103.609 21.1652 103.769 21.1652C103.88 21.1652 104 21.213 104.127 21.3086C104.271 21.3883 104.342 21.4918 104.342 21.6193C104.342 21.6352 104.334 21.6591 104.319 21.691C104.319 21.7229 104.319 21.7468 104.319 21.7627C104.159 22.2567 103.928 22.7267 103.625 23.1729C103.323 23.6191 102.972 24.0174 102.574 24.368C102.175 24.7026 101.729 24.9735 101.235 25.1806C100.757 25.3718 100.247 25.4674 99.7055 25.4674C99.1956 25.4674 98.7654 25.4037 98.4148 25.2762C98.0643 25.1328 97.7934 24.8141 97.6022 24.3202C97.6022 24.2724 97.5942 24.1688 97.5783 24.0095C97.5783 23.8342 97.5783 23.7306 97.5783 23.6987C97.5783 23.0932 97.6341 22.5116 97.7456 21.9539C97.8731 21.3962 97.9368 20.8306 97.9368 20.2569C97.9368 20.2091 97.9288 20.1055 97.9129 19.9462C97.9129 19.7868 97.9129 19.6833 97.9129 19.6355C97.8492 19.5558 97.7456 19.516 97.6022 19.516C97.4747 19.516 97.3552 19.516 97.2437 19.516C96.909 19.516 96.5904 19.6355 96.2876 19.8745C95.9848 20.1135 95.706 20.4163 95.451 20.7827C95.1961 21.1492 94.965 21.5635 94.7579 22.0256C94.5667 22.4718 94.3994 22.9259 94.256 23.388C94.1126 23.8342 93.993 24.2564 93.8974 24.6548C93.8178 25.0372 93.77 25.3559 93.754 25.6109L93.4911 25.8499H92.6785C92.5351 25.8499 92.4554 25.7782 92.4394 25.6348C92.4394 25.4754 92.4394 25.3559 92.4394 25.2762C92.4394 24.8938 92.4634 24.5114 92.5112 24.129C92.5749 23.7306 92.6386 23.3402 92.7024 22.9578C92.782 22.5594 92.8537 22.1611 92.9175 21.7627C92.9812 21.3644 93.0211 20.974 93.037 20.5915C93.0211 20.4641 93.0051 20.3286 92.9892 20.1852C92.9733 20.0259 92.9414 19.8825 92.8936 19.755C92.8458 19.6275 92.7741 19.5239 92.6785 19.4443C92.5829 19.3487 92.4474 19.3009 92.2721 19.3009C92.0172 19.3009 91.7702 19.3487 91.5312 19.4443C91.2922 19.5399 91.0691 19.6673 90.8619 19.8267C90.6707 19.9701 90.4955 20.1533 90.3361 20.3764C90.1927 20.5836 90.0891 20.8146 90.0254 21.0696L88.5913 25.7065L88.3762 25.9455C88.3762 25.9455 88.3284 25.9455 88.2328 25.9455C88.1372 25.9614 88.0655 25.9694 88.0177 25.9694C87.8424 25.9694 87.6591 25.9534 87.4679 25.9216C87.2927 25.8738 87.205 25.7224 87.205 25.4674V25.3718Z" fill="black"/>
<path d="M103.506 24.5831C103.506 24.0254 103.57 23.4836 103.697 22.9578C103.825 22.432 104 21.9141 104.223 21.4042C104.366 20.8624 104.526 20.3605 104.701 19.8984C104.876 19.4204 105.051 19.014 105.227 18.6794C105.418 18.3289 105.609 18.058 105.8 17.8668C105.992 17.6596 106.191 17.556 106.398 17.556C106.605 17.556 106.756 17.6198 106.852 17.7473C106.964 17.8588 107.019 18.0181 107.019 18.2253V18.3687L105.848 21.1652C105.832 21.197 105.792 21.2608 105.729 21.3564C105.665 21.4361 105.633 21.4918 105.633 21.5237V21.6193C105.601 21.699 105.553 21.8264 105.49 22.0017C105.442 22.177 105.386 22.3682 105.322 22.5754C105.259 22.7666 105.195 22.9498 105.131 23.1251C105.083 23.3004 105.051 23.4199 105.036 23.4836C105.004 23.5633 104.98 23.6908 104.964 23.866C104.948 24.0413 104.94 24.1529 104.94 24.2007C104.94 24.2325 104.948 24.2963 104.964 24.3919C104.98 24.4716 105.004 24.5273 105.036 24.5592C105.641 24.3202 106.286 23.9617 106.972 23.4836C107.673 22.9897 108.342 22.4399 108.979 21.8344C109.617 21.2289 110.182 20.5995 110.676 19.9462C111.186 19.277 111.561 18.6316 111.8 18.0102C111.832 17.9942 111.911 17.9703 112.039 17.9385C112.166 17.9066 112.246 17.8907 112.278 17.8907C112.294 17.8907 112.31 17.8907 112.326 17.8907C112.357 17.8907 112.381 17.8907 112.397 17.8907C112.557 17.8907 112.692 17.9624 112.804 18.1058C112.931 18.2492 112.995 18.3926 112.995 18.536C112.995 18.5519 112.987 18.5838 112.971 18.6316C112.971 18.6794 112.971 18.7113 112.971 18.7272C112.684 19.4124 112.437 20.0657 112.23 20.6871C112.023 21.3086 111.919 21.9778 111.919 22.6949C111.919 22.9976 111.927 23.2446 111.943 23.4358C111.975 23.6111 112.047 23.866 112.158 24.2007C112.174 24.2803 112.206 24.3202 112.254 24.3202C112.318 24.3202 112.373 24.3202 112.421 24.3202C112.899 24.3202 113.377 24.1369 113.855 23.7704C114.333 23.4039 114.763 22.9578 115.146 22.432C115.544 21.8902 115.863 21.3245 116.102 20.7349C116.341 20.1454 116.461 19.6275 116.461 19.1813C116.461 18.9423 116.437 18.7192 116.389 18.5121C116.357 18.289 116.341 18.0659 116.341 17.8429C116.341 17.6357 116.397 17.4525 116.508 17.2931C116.62 17.1338 116.779 17.0541 116.986 17.0541C117.13 17.0541 117.265 17.1019 117.393 17.1975C117.52 17.2772 117.64 17.3728 117.751 17.4843C117.879 17.5959 118.006 17.6994 118.134 17.7951C118.261 17.8907 118.404 17.9624 118.564 18.0102C118.946 18.0102 119.241 18.0102 119.448 18.0102C119.671 18.0102 119.839 18.0102 119.95 18.0102C120.078 18.0102 120.181 18.0022 120.261 17.9863C120.341 17.9544 120.436 17.9146 120.548 17.8668C120.659 17.803 120.811 17.7234 121.002 17.6277C121.209 17.5321 121.48 17.4047 121.814 17.2453C121.83 17.2294 121.862 17.2214 121.91 17.2214C121.958 17.2214 121.99 17.2214 122.006 17.2214C122.149 17.2214 122.277 17.2692 122.388 17.3648C122.5 17.4604 122.555 17.5879 122.555 17.7473C122.555 17.9225 122.508 18.0659 122.412 18.1775C122.332 18.2731 122.229 18.3607 122.101 18.4404C121.974 18.5041 121.83 18.5679 121.671 18.6316C121.528 18.6794 121.392 18.7192 121.265 18.7511C120.898 18.8945 120.611 18.9981 120.404 19.0618C120.213 19.1096 120.062 19.1495 119.95 19.1813C119.855 19.1973 119.775 19.2132 119.711 19.2291C119.647 19.2291 119.552 19.2291 119.424 19.2291C119.313 19.2291 119.153 19.2371 118.946 19.253C118.755 19.253 118.476 19.269 118.11 19.3009C118.078 19.3009 118.03 19.3168 117.966 19.3487C117.918 19.3805 117.887 19.4044 117.871 19.4204C117.775 20.1374 117.552 20.8704 117.201 21.6193C116.867 22.3523 116.429 23.0295 115.887 23.6509C115.345 24.2564 114.716 24.7504 113.999 25.1328C113.298 25.5153 112.565 25.7065 111.8 25.7065C111.64 25.7065 111.489 25.6427 111.346 25.5153C111.218 25.3718 111.099 25.2125 110.987 25.0372C110.891 24.8619 110.812 24.6867 110.748 24.5114C110.684 24.3202 110.644 24.1768 110.629 24.0812C110.613 24.0174 110.589 23.8979 110.557 23.7226C110.541 23.5474 110.517 23.3561 110.485 23.149C110.469 22.9419 110.445 22.7586 110.413 22.5993C110.397 22.424 110.39 22.2965 110.39 22.2168C110.103 22.5196 109.728 22.8861 109.266 23.3163C108.804 23.7306 108.302 24.1369 107.76 24.5353C107.219 24.9177 106.669 25.2523 106.111 25.5392C105.569 25.81 105.075 25.9455 104.629 25.9455C104.215 25.9455 103.92 25.8021 103.745 25.5153C103.586 25.2284 103.506 24.9177 103.506 24.5831Z" fill="black"/>
<path d="M121.791 25.2284C121.791 25.1806 121.791 25.0611 121.791 24.8699C121.791 24.6787 121.791 24.5512 121.791 24.4875C121.52 23.5314 121.48 22.5913 121.671 21.6671C121.878 20.7429 122.237 19.9143 122.747 19.1813C123.272 18.4324 123.934 17.811 124.73 17.317C125.543 16.8071 126.427 16.4964 127.384 16.3849H127.814C128.164 16.3849 128.451 16.4645 128.674 16.6239C128.913 16.7673 129.096 16.9585 129.224 17.1975C129.367 17.4365 129.463 17.7074 129.511 18.0102C129.574 18.3129 129.606 18.6157 129.606 18.9184C129.606 19.3327 129.559 19.739 129.463 20.1374C129.383 20.5198 129.288 20.9102 129.176 21.3086C129.081 21.7069 128.985 22.1053 128.889 22.5037C128.81 22.8861 128.77 23.2924 128.77 23.7226V23.866C128.786 23.8979 128.802 23.9935 128.818 24.1529C128.849 24.2963 128.873 24.3839 128.889 24.4158C128.921 24.4158 129.001 24.4237 129.128 24.4397C129.256 24.4397 129.335 24.4397 129.367 24.4397C129.527 24.4397 129.678 24.4397 129.821 24.4397C129.981 24.4237 130.14 24.3839 130.299 24.3202L134.841 22.2168C134.857 22.2168 134.881 22.2168 134.912 22.2168C134.96 22.2009 134.992 22.1929 135.008 22.1929C135.167 22.1929 135.295 22.2407 135.391 22.3363C135.502 22.432 135.558 22.5594 135.558 22.7188C135.558 22.7984 135.55 22.8781 135.534 22.9578C135.534 23.0215 135.494 23.0853 135.414 23.149C135.303 23.2287 135.096 23.3402 134.793 23.4836C134.506 23.627 134.195 23.7864 133.861 23.9617C133.526 24.1369 133.208 24.3042 132.905 24.4636C132.618 24.6229 132.411 24.7265 132.283 24.7743C132.06 24.9018 131.813 25.0213 131.542 25.1328C131.271 25.2284 130.993 25.324 130.706 25.4196C130.419 25.5153 130.132 25.5949 129.845 25.6587C129.574 25.7065 129.327 25.7304 129.104 25.7304C128.754 25.7304 128.467 25.6746 128.244 25.5631C128.021 25.4356 127.854 25.2762 127.742 25.085C127.63 24.8779 127.551 24.6389 127.503 24.368C127.471 24.0812 127.471 23.7864 127.503 23.4836C127.184 23.7386 126.842 24.0095 126.475 24.2963C126.109 24.5831 125.726 24.846 125.328 25.085C124.93 25.324 124.523 25.5312 124.109 25.7065C123.695 25.8817 123.272 25.9694 122.842 25.9694C122.603 25.9694 122.388 25.9136 122.197 25.8021C122.006 25.6746 121.87 25.4834 121.791 25.2284ZM123.081 24.7265C123.448 24.7265 123.854 24.6229 124.3 24.4158C124.746 24.1927 125.185 23.9218 125.615 23.6031C126.045 23.2844 126.435 22.9498 126.786 22.5993C127.137 22.2328 127.407 21.9061 127.599 21.6193C127.615 21.1413 127.678 20.6871 127.79 20.2569C127.917 19.8108 127.981 19.3566 127.981 18.8945C127.981 18.8627 127.973 18.8149 127.957 18.7511C127.957 18.6874 127.957 18.6396 127.957 18.6077C127.75 18.4324 127.575 18.3289 127.431 18.297C127.288 18.2651 127.097 18.2492 126.858 18.2492C126.826 18.2492 126.754 18.2492 126.643 18.2492C126.547 18.2492 126.483 18.2572 126.451 18.2731C126.356 18.3528 126.196 18.5041 125.973 18.7272C125.75 18.9344 125.511 19.1654 125.256 19.4204C125.017 19.6753 124.786 19.9143 124.563 20.1374C124.356 20.3605 124.213 20.5119 124.133 20.5915C124.117 20.5915 124.085 20.6234 124.037 20.6871C123.989 20.7349 123.934 20.7987 123.87 20.8784C123.822 20.958 123.774 21.0377 123.727 21.1174C123.695 21.1811 123.671 21.2369 123.655 21.2847L123.081 24.0812V24.7265Z" fill="black"/>
<path d="M133.502 31.9687C133.502 30.9329 133.733 29.9769 134.195 29.1005C134.642 28.24 135.215 27.4513 135.916 26.7342C136.633 26.0331 137.422 25.4037 138.283 24.846C139.159 24.2883 140.011 23.8023 140.84 23.388L141.533 21.1652C141.454 21.2608 141.294 21.4201 141.055 21.6432C140.832 21.8663 140.593 22.1053 140.338 22.3603C140.083 22.5993 139.836 22.8303 139.597 23.0534C139.358 23.2605 139.191 23.4039 139.095 23.4836C138.904 23.643 138.673 23.8262 138.402 24.0334C138.131 24.2405 137.836 24.4397 137.518 24.6309C137.215 24.8062 136.904 24.9576 136.586 25.085C136.267 25.1966 135.98 25.2523 135.725 25.2523C135.375 25.2523 135.144 25.1727 135.032 25.0133C134.936 24.838 134.889 24.5911 134.889 24.2724C134.889 24.0174 134.905 23.7545 134.936 23.4836C134.984 23.2127 134.976 22.9419 134.912 22.671L135.845 20.1374C135.988 19.994 136.124 19.7709 136.251 19.4682C136.394 19.1654 136.53 18.8627 136.657 18.5599C136.801 18.2572 136.944 17.9942 137.088 17.7712C137.247 17.5481 137.414 17.4365 137.589 17.4365C137.781 17.4365 137.94 17.4923 138.067 17.6038C138.211 17.7154 138.283 17.8747 138.283 18.0819C138.283 18.2412 138.259 18.3846 138.211 18.5121C138.179 18.6236 138.123 18.775 138.044 18.9662C137.836 19.3965 137.629 19.8028 137.422 20.1852C137.231 20.5676 137.048 20.9501 136.872 21.3325C136.713 21.7149 136.578 22.1133 136.466 22.5276C136.37 22.9259 136.323 23.3721 136.323 23.866H136.418C136.418 23.866 136.466 23.8421 136.562 23.7943C136.657 23.7306 136.761 23.6669 136.872 23.6031C137 23.5235 137.127 23.4438 137.255 23.3641C137.382 23.2844 137.494 23.2127 137.589 23.149C138.466 22.5754 139.239 21.9061 139.908 21.1413C140.577 20.3605 141.238 19.5558 141.892 18.7272C141.955 18.6316 142.011 18.5599 142.059 18.5121C142.107 18.4643 142.147 18.4324 142.179 18.4165C142.21 18.3846 142.25 18.3687 142.298 18.3687C142.346 18.3687 142.418 18.3687 142.513 18.3687C142.736 18.3687 142.912 18.4165 143.039 18.5121C143.182 18.5918 143.27 18.783 143.302 19.0857C143.318 19.2929 143.302 19.5478 143.254 19.8506C143.206 20.1374 143.143 20.4242 143.063 20.711C142.983 20.9979 142.896 21.2847 142.8 21.5715C142.72 21.8424 142.649 22.0575 142.585 22.2168V22.5754C142.617 22.5594 142.688 22.5355 142.8 22.5037C142.927 22.4718 143.015 22.4479 143.063 22.432C143.159 22.416 143.421 22.3284 143.852 22.169C144.282 22.0097 144.744 21.8424 145.238 21.6671C145.748 21.4759 146.218 21.3006 146.648 21.1413C147.078 20.9819 147.349 20.8784 147.461 20.8306H147.509C147.62 20.8306 147.716 20.8704 147.795 20.9501C147.891 21.0297 147.939 21.1253 147.939 21.2369C147.939 21.3484 147.899 21.444 147.819 21.5237C147.756 21.6034 147.676 21.6751 147.58 21.7388C147.485 21.7866 147.381 21.8344 147.27 21.8822C147.158 21.93 147.062 21.9699 146.983 22.0017C146.871 22.0655 146.712 22.1451 146.505 22.2407C146.298 22.3204 146.059 22.416 145.788 22.5276C145.533 22.6232 145.262 22.7347 144.975 22.8622C144.688 22.9897 144.409 23.1092 144.138 23.2207C143.485 23.4916 142.776 23.7784 142.011 24.0812L139.908 32.0165C139.812 32.3989 139.629 32.7973 139.358 33.2115C139.103 33.6258 138.8 34.0083 138.45 34.3588C138.099 34.7094 137.709 34.9882 137.279 35.1954C136.864 35.4185 136.442 35.53 136.012 35.53C135.566 35.53 135.183 35.4105 134.865 35.1715C134.546 34.9484 134.283 34.6536 134.076 34.2871C133.869 33.9366 133.725 33.5541 133.646 33.1398C133.55 32.7256 133.502 32.3352 133.502 31.9687ZM134.793 31.9687C134.793 32.1758 134.809 32.4069 134.841 32.6618C134.889 32.9168 134.968 33.1637 135.08 33.4028C135.191 33.6418 135.327 33.841 135.486 34.0003C135.661 34.1596 135.884 34.2393 136.155 34.2393C136.506 34.2393 136.825 34.1278 137.111 33.9047C137.414 33.6975 137.677 33.4346 137.9 33.1159C138.139 32.8132 138.338 32.4865 138.498 32.136C138.657 31.7854 138.785 31.4747 138.88 31.2038C138.928 31.0126 139 30.7417 139.095 30.3912C139.191 30.0565 139.279 29.7219 139.358 29.3873C139.454 29.0527 139.533 28.7499 139.597 28.479C139.661 28.2241 139.693 28.0727 139.693 28.0249V27.9293L140.386 24.9177C139.749 25.1249 139.095 25.4754 138.426 25.9694C137.773 26.4633 137.175 27.037 136.633 27.6903C136.092 28.3436 135.645 29.0447 135.295 29.7936C134.96 30.5425 134.793 31.2676 134.793 31.9687Z" fill="black"/>
<path d="M147.078 21.6193C147.078 21.6193 147.086 21.6113 147.102 21.5954C147.134 21.5635 147.158 21.5396 147.174 21.5237C147.206 21.3803 147.27 21.1333 147.365 20.7827C147.461 20.4322 147.564 20.0577 147.676 19.6594C147.787 19.2451 147.891 18.8627 147.987 18.5121C148.098 18.1615 148.178 17.9225 148.226 17.7951C148.242 17.7313 148.289 17.5959 148.369 17.3887C148.465 17.1656 148.568 16.9266 148.68 16.6717C148.791 16.4167 148.903 16.1618 149.014 15.9068C149.126 15.6519 149.206 15.4607 149.253 15.3332C149.365 15.1101 149.532 14.8153 149.755 14.4488C149.994 14.0823 150.257 13.7398 150.544 13.4211C150.847 13.0865 151.158 12.7996 151.476 12.5606C151.795 12.3057 152.09 12.1782 152.361 12.1782C152.504 12.1782 152.616 12.218 152.695 12.2977C152.791 12.3774 152.855 12.473 152.886 12.5845C152.934 12.6801 152.966 12.7917 152.982 12.9191C152.998 13.0466 153.006 13.1582 153.006 13.2538C153.006 14.0823 152.886 14.9109 152.647 15.7395C152.424 16.5522 152.114 17.333 151.715 18.0819C151.317 18.8308 150.839 19.5399 150.281 20.2091C149.739 20.8624 149.166 21.452 148.56 21.9778C148.544 22.0256 148.52 22.1212 148.489 22.2646C148.473 22.4081 148.457 22.5116 148.441 22.5754V22.6232C148.441 22.9419 148.52 23.1968 148.68 23.388C148.855 23.5792 149.062 23.7226 149.301 23.8182C149.54 23.8979 149.803 23.9537 150.09 23.9856C150.393 24.0174 150.68 24.0334 150.95 24.0334C151.094 24.0334 151.301 23.9617 151.572 23.8182C151.859 23.6748 152.146 23.5155 152.432 23.3402C152.735 23.149 153.03 22.9817 153.317 22.8383C153.604 22.6949 153.819 22.6232 153.962 22.6232C154.105 22.6232 154.217 22.671 154.297 22.7666C154.376 22.8622 154.416 22.9817 154.416 23.1251C154.416 23.3641 154.233 23.6191 153.866 23.8899C153.5 24.1608 153.078 24.4158 152.6 24.6548C152.122 24.8779 151.66 25.0691 151.213 25.2284C150.783 25.3878 150.496 25.4674 150.353 25.4674C149.875 25.5631 149.429 25.571 149.014 25.4914C148.6 25.3957 148.242 25.2444 147.939 25.0372C147.636 24.8141 147.381 24.5512 147.174 24.2485C146.983 23.9298 146.863 23.6031 146.815 23.2685L147.078 21.6193ZM151.596 14.4966C151.452 14.4966 151.285 14.6161 151.094 14.8552C150.919 15.0782 150.743 15.3412 150.568 15.6439C150.393 15.9467 150.233 16.2415 150.09 16.5283C149.962 16.7992 149.891 16.9824 149.875 17.078C149.827 17.1895 149.755 17.3728 149.66 17.6277C149.564 17.8827 149.469 18.1536 149.373 18.4404C149.277 18.7113 149.182 18.9742 149.086 19.2291C149.006 19.4841 148.951 19.6673 148.919 19.7789H149.038C149.038 19.7789 149.086 19.7231 149.182 19.6116C149.277 19.4841 149.381 19.3407 149.492 19.1813C149.62 19.022 149.747 18.8627 149.875 18.7033C150.018 18.528 150.122 18.3846 150.186 18.2731C150.249 18.1775 150.337 18.0341 150.448 17.8429C150.56 17.6357 150.632 17.5082 150.664 17.4604C150.727 17.2852 150.815 17.0541 150.927 16.7673C151.038 16.4645 151.142 16.1698 151.237 15.8829C151.333 15.5961 151.413 15.3491 151.476 15.142C151.556 14.9189 151.596 14.7914 151.596 14.7596V14.4966Z" fill="black"/>
<path d="M153.962 22.2168C153.994 22.1212 154.042 21.9539 154.105 21.7149C154.185 21.46 154.257 21.1891 154.321 20.9023C154.4 20.6154 154.464 20.3446 154.512 20.0896C154.575 19.8187 154.623 19.6355 154.655 19.5399C154.751 19.1574 154.862 18.7431 154.99 18.297C155.133 17.8508 155.324 17.4365 155.563 17.0541C155.802 16.6717 156.105 16.361 156.472 16.1219C156.854 15.867 157.324 15.7395 157.882 15.7395C158.089 15.7395 158.232 15.8192 158.312 15.9785C158.408 16.1219 158.487 16.2813 158.551 16.4566C158.551 16.5203 158.551 16.6398 158.551 16.8151C158.567 16.9744 158.575 17.086 158.575 17.1497C158.575 17.8349 158.503 18.4404 158.36 18.9662C158.232 19.4921 158.025 19.9781 157.738 20.4242C157.468 20.8704 157.133 21.2926 156.735 21.691C156.336 22.0734 155.882 22.4798 155.372 22.91C155.356 22.9578 155.332 23.0375 155.301 23.149C155.269 23.2605 155.253 23.3402 155.253 23.388V23.4358C155.253 23.7226 155.301 23.9537 155.396 24.129C155.492 24.3042 155.619 24.4477 155.779 24.5592C155.954 24.6548 156.145 24.7185 156.352 24.7504C156.575 24.7663 156.814 24.7743 157.069 24.7743C157.818 24.7743 158.535 24.6707 159.22 24.4636C159.906 24.2564 160.535 23.9218 161.109 23.4597C161.188 23.38 161.284 23.2685 161.395 23.1251C161.523 22.9658 161.65 22.8064 161.778 22.6471C161.905 22.4877 162.041 22.3523 162.184 22.2407C162.328 22.1133 162.479 22.0495 162.638 22.0495C162.798 22.0495 162.893 22.1133 162.925 22.2407C162.957 22.3682 162.973 22.4957 162.973 22.6232C162.973 22.9737 162.861 23.3083 162.638 23.627C162.431 23.9298 162.152 24.2086 161.802 24.4636C161.467 24.7026 161.077 24.9177 160.631 25.1089C160.2 25.3001 159.77 25.4595 159.34 25.587C158.91 25.7144 158.495 25.81 158.097 25.8738C157.715 25.9375 157.388 25.9694 157.117 25.9694C156.273 25.9694 155.563 25.8339 154.99 25.5631C154.432 25.2762 154.05 24.7106 153.843 23.866L153.962 22.2168ZM157.38 17.5082C157.061 17.7951 156.806 18.058 156.615 18.297C156.44 18.5201 156.296 18.7591 156.185 19.014C156.089 19.253 156.002 19.516 155.922 19.8028C155.858 20.0896 155.787 20.4242 155.707 20.8067C156.01 20.5676 156.257 20.3286 156.448 20.0896C156.655 19.8506 156.822 19.6036 156.95 19.3487C157.077 19.0937 157.173 18.8228 157.237 18.536C157.3 18.2332 157.348 17.8907 157.38 17.5082Z" fill="black"/>
<path d="M4.89705 13.4629C5.28397 13.3504 5.69939 13.3919 6.05639 13.5788L8.00003 14.596L12.5 16.3405L17.5 18.9573L19.1037 19.7966C19.6953 20.1062 20.3428 20.2942 21.0082 20.3495L30.5 21.138L43.2654 21.522C43.8839 21.5406 44.1586 22.3081 43.6923 22.7149C43.5683 22.823 43.4094 22.8825 43.245 22.8825H42.5H42.8431C42.9443 22.8825 43.0421 22.9192 43.1183 22.9857C43.4146 23.2441 43.2235 23.7315 42.8305 23.7196L29.5 23.3187L19.528 22.1325C18.8499 22.0519 18.1955 21.8332 17.6051 21.4899L13.1146 18.8786C12.7069 18.6415 12.2678 18.4633 11.8102 18.3493L5.68639 16.8231C5.56249 16.7922 5.44211 16.7486 5.3272 16.6929L4.65221 16.3658C3.36608 15.7426 3.5247 13.8619 4.89705 13.4629Z" fill="#2D635E"/>
<path d="M8.05181 24.3833C8.03067 24.3642 8.04072 24.3291 8.06878 24.3241L10.506 23.888C10.9992 23.7998 11.4763 23.6379 11.9213 23.4079L13.5 22.5919L16.212 20.9158C16.8995 20.4909 17.6917 20.2658 18.5 20.2658C18.9634 20.2658 19.3822 19.9899 19.5653 19.5642L19.7605 19.1101C19.7623 19.106 19.7669 19.1039 19.7711 19.1054L23.4505 20.3892C24.1174 20.6218 24.388 21.4194 24.0003 22.0099C24.0001 22.0102 23.9999 22.0105 23.9998 22.0108C23.5195 23.1486 22.7262 24.1299 21.7135 24.8366L21.4989 24.9864C21.0105 25.3272 20.483 25.6082 19.9277 25.8235L17.7636 26.6624C14.5106 27.7406 10.9291 26.986 8.38757 24.6871L8.05181 24.3833Z" fill="#2D635E"/>
<path d="M21.4587 7.20511C21.377 7.05492 21.1504 7.10677 21.1214 7.28229L20.6 10.4357L20.2651 12.7188L19.7397 14.889C19.3685 16.4222 19.2068 17.9889 19.2594 19.543C19.26 19.5592 19.2651 19.5745 19.2743 19.5872L19.6928 20.1669L20.1908 21.0255C20.1938 21.0307 20.1985 21.0344 20.2042 21.0362L21.1644 21.3271C21.3849 21.3939 21.5834 21.5152 21.7434 21.6808L22.1045 22.0546C22.8605 22.8374 24.2146 22.2335 24.2518 21.097C24.2541 21.0277 24.2619 20.9584 24.275 20.8898L24.4617 19.915C24.7785 18.261 24.7937 16.5785 24.5065 14.9549L24.4009 14.3581C24.0976 12.6438 23.5273 11.0061 22.7113 9.50684L21.4587 7.20511Z" fill="#2D635E"/>
<path d="M1.88568 5.89261C2.76567 4.66447 4.07338 3.81008 5.55156 3.49751L7.15886 3.15763C8.21546 2.9342 9.23027 2.54568 10.1659 2.00637L11.98 0.960747C11.9887 0.955746 11.9995 0.962279 11.999 0.972285L11.9756 1.53797C11.8364 4.8949 10.0757 7.97517 7.25366 9.79853C6.11215 10.4623 5.64589 11.8739 6.16744 13.087L6.75014 14.4424C6.75241 14.4477 6.75269 14.4536 6.75091 14.4591L6.15573 16.2961C6.06289 16.5826 5.79599 16.7767 5.49478 16.7767C5.16658 16.7767 4.84004 16.7302 4.5249 16.6385L3.00349 16.1962C3.00117 16.1955 2.99895 16.1945 2.99686 16.1933C1.17401 15.1333 0.145128 13.1003 0.370465 11.0038L0.499345 9.80463C0.499779 9.80059 0.500827 9.79664 0.502453 9.79291L0.751155 9.22277C0.752809 9.21898 0.753662 9.21489 0.753662 9.21075C0.753662 8.08036 1.10771 6.97836 1.7661 6.0595L1.88568 5.89261Z" fill="#2D635E"/>
<path d="M3.31337 6.61317C2.85157 6.99315 2.62356 7.85237 2.56728 8.23447C2.4834 8.60921 2.37551 8.38765 2.24619 8.19878C2.41047 8.23151 2.65733 8.1627 2.33062 7.62562C2.0039 7.08854 2.30705 6.63762 2.49946 6.47929C2.6356 6.70308 2.94164 6.92138 3.07672 6.00432C3.24556 4.85799 4.6396 5.72571 4.14678 5.62753C3.75252 5.54898 3.59765 5.91144 3.5695 6.1025C3.73378 6.13522 3.77517 6.23319 3.31337 6.61317Z" fill="white" stroke="white" stroke-width="0.1"/>
<path d="M11.152 25.4772C11.5189 25.7294 12.2664 25.9322 12.5943 26.0021C12.9187 26.0836 12.7428 26.1063 12.5965 26.1425C12.6076 26.0724 12.5247 25.9532 12.1047 26.0377C11.6848 26.1221 11.274 25.9331 11.1211 25.828C11.2961 25.7928 11.4494 25.6805 10.6625 25.5127C9.67885 25.3031 10.2701 24.7767 10.237 24.9871C10.2104 25.1554 10.5317 25.2674 10.6956 25.3024C10.7067 25.2322 10.7851 25.225 11.152 25.4772Z" fill="white" stroke="white" stroke-width="0.1"/>
</svg>
